<svg width="343" height="348" xmlns="http://www.w3.org/2000/svg" xmlns:xlink="http://www.w3.org/1999/xlink" preserveAspectRatio="none">
 <!---->

 <g>
  <title>background</title>
  <rect fill="none" id="canvas_background" height="402" width="582" y="-1" x="-1"/>
 </g>
 <g stroke="null">
  <title>Layer 1</title>
  <g fill="#fff" id="svg_6" stroke="#000000" transform="matrix(1,0,0,1,30,30) ">
   <rect y="-704" id="svg_7" x="-666" height="1247.049529" width="1536.00003" fill="#fff" stroke="#000000"/>
   <g id="svg_8" transform="matrix(5.06930702948902,0,0,5.06930702948902,625.3204510462665,643.4053026896402) " stroke="null">
    <svg fill="#fff" stroke="#000000" preserveAspectRatio="none" viewBox="0 0 283.46 226.77" height="226" width="283" y="-210.994009" x="-237.733131" id="svg_1" xmlns:xlink="http://www.w3.org/1999/xlink">
     <path id="svg_2" fill-rule="evenodd" clip-rule="evenodd" fill="#fff" d="m142.171,84.595c0.491,6.172 -5.659,8.706 -5.845,15.1c-0.126,4.352 2.813,8.013 6.368,11.746c1.131,-3.459 2.105,-7.757 2.924,-12.893l-0.003,0.219l0,0.001c-0.081,5.076 -0.841,10.084 -2.288,14.916c-0.075,0.247 -0.246,0.428 -0.487,0.513c-0.242,0.087 -0.489,0.056 -0.701,-0.087c-0.716,-0.482 -1.45,-0.94 -2.199,-1.377c-0.176,-0.102 -0.293,-0.249 -0.354,-0.444c-4.619,-14.817 -21.148,-11.965 -27.785,-4.868c6.048,1.33 6.678,7.951 12.741,9.993c4.127,1.388 8.485,-0.356 13.093,-2.669c-2.98,-2.089 -6.807,-4.275 -11.482,-6.555l0.209,0.066l0.001,0.001c4.832,1.557 9.401,3.743 13.602,6.537c0.214,0.142 0.337,0.358 0.349,0.614c0.012,0.257 -0.088,0.483 -0.289,0.646c-0.669,0.544 -1.322,1.112 -1.956,1.7c-0.149,0.14 -0.325,0.208 -0.53,0.209c-15.519,0.095 -17.614,16.738 -12.764,25.156c3.037,-5.397 9.553,-4.067 13.276,-9.272c2.531,-3.542 2.135,-8.218 1.267,-13.301c-2.869,2.241 -6.076,5.265 -9.619,9.07l0.124,-0.181l0,-0.002c2.898,-4.163 6.317,-7.89 10.21,-11.092c0.2,-0.164 0.443,-0.218 0.693,-0.153c0.251,0.065 0.439,0.229 0.533,0.47c0.316,0.794 0.657,1.577 1.024,2.351c0.088,0.185 0.101,0.371 0.04,0.567c-4.574,14.83 10.67,21.831 20.157,19.735c-4.236,-4.518 -1.009,-10.336 -4.853,-15.448c-2.616,-3.48 -7.197,-4.507 -12.305,-5.207c1.274,3.409 3.195,7.377 5.759,11.901l-0.135,-0.173l-0.001,-0.001c-3.085,-3.994 -5.603,-8.352 -7.483,-13.002c-0.1,-0.244 -0.075,-0.5 0.07,-0.721c0.143,-0.221 0.366,-0.346 0.63,-0.356c0.809,-0.026 1.618,-0.078 2.425,-0.156c0.203,-0.02 0.384,0.033 0.547,0.156c12.383,9.355 24.161,-2.59 25.424,-12.223c-5.692,2.442 -10.059,-2.575 -16.177,-0.704c-4.163,1.275 -6.691,5.23 -9.088,9.794c3.639,-0.036 8.022,-0.488 13.151,-1.358l-0.209,0.069l-0.001,0c-4.82,1.543 -9.789,2.425 -14.814,2.605c-0.26,0.009 -0.49,-0.098 -0.649,-0.305c-0.158,-0.207 -0.204,-0.455 -0.128,-0.705c0.242,-0.798 0.458,-1.602 0.648,-2.414c0.047,-0.2 0.155,-0.354 0.323,-0.468c12.825,-8.739 5.279,-23.72 -3.443,-28z" stroke="#000000"/>
    </svg>
   </g>
  </g>
  <!---->
  <image xlink:href="images/logo.png" opacity="0.5" id="svg_29" height="0" width="0" y="-2.08333" x="-230.20833"/>
  <image xlink:href="images/logo.png" opacity="0.5" id="svg_30" height="0" width="0" y="-4.16667" x="-40.625"/>
 </g>
</svg>